<svg version="1.1" id="Layer_1" xmlns="http://www.w3.org/2000/svg" xmlns:xlink="http://www.w3.org/1999/xlink" x="0px" y="0px"
	 width="100%" viewBox="0 0 1024 832" enable-background="new 0 0 1024 832" xml:space="preserve">
<path fill="#000000" opacity="1.000000" stroke="none" 
	d="
M285.283752,231.829193 
	C298.474945,229.900284 311.168915,227.151428 324.123230,226.172592 
	C326.863190,225.965530 328.146027,227.408951 329.109344,229.440887 
	C334.021576,239.802353 339.676239,249.811264 343.844788,260.527740 
	C344.571655,262.396362 344.316162,264.070038 343.564941,265.829498 
	C339.504120,275.340820 333.959045,284.076752 329.272003,293.260529 
	C327.889648,295.969086 325.633026,297.208344 322.551056,297.747131 
	C315.027313,299.062378 307.702759,301.448303 299.956207,301.581757 
	C296.668121,301.638397 294.836395,303.613037 294.471405,306.934967 
	C293.835175,312.725433 293.176208,318.513794 292.466888,324.295685 
	C292.211273,326.378784 293.238251,327.186310 295.066956,327.854034 
	C301.268921,330.118530 301.701447,331.675446 298.173096,337.233643 
	C296.841034,339.332062 295.332947,341.429108 294.555878,343.745148 
	C293.185333,347.830139 294.698517,349.718140 298.928070,349.925720 
	C307.577423,350.350220 308.670471,352.029968 305.895752,360.318176 
	C305.159851,362.516357 302.645874,364.976532 305.412354,367.076233 
	C307.887726,368.955017 310.575531,367.395172 312.824249,365.934479 
	C316.738281,363.392181 318.976074,364.613739 320.203186,368.808197 
	C321.044128,371.682831 321.782745,374.610535 322.916077,377.371277 
	C324.805450,381.973694 328.070129,382.390381 331.165802,378.613647 
	C331.271118,378.485107 331.350616,378.335693 331.453583,378.205048 
	C336.965363,371.213135 339.253632,371.271271 343.310608,379.362762 
	C345.331635,383.393585 348.433533,384.239563 352.206726,384.368347 
	C354.934509,384.461395 356.418732,383.313995 356.530975,380.217072 
	C356.865631,370.983765 360.570770,369.076080 368.447083,373.809052 
	C371.319855,375.535370 374.331604,377.251801 377.812561,376.584106 
	C382.729309,375.641022 384.972900,372.069824 384.377930,366.759796 
	C383.654053,360.299744 385.981201,357.656158 392.327881,357.815399 
	C394.490570,357.869659 396.892151,357.503113 398.764771,358.306885 
	C404.312500,360.687988 408.434052,357.643341 412.612854,355.110870 
	C416.220032,352.924835 417.349030,349.592102 416.574127,345.226715 
	C415.227783,337.642212 417.207703,335.618866 425.032196,335.886993 
	C427.686493,335.977936 430.516602,335.882782 432.942169,336.764496 
	C439.854156,339.277161 445.611603,336.516846 451.479218,333.567291 
	C453.936340,332.332184 453.823883,330.226349 453.889709,328.035797 
	C454.233276,316.601044 454.856720,316.166626 465.793182,319.428192 
	C469.620239,320.569580 473.370392,321.912628 477.128601,323.258606 
	C481.132111,324.692474 481.986267,327.300476 481.982330,330.910645 
	C481.968506,343.567780 483.578613,356.090698 485.155304,368.616058 
	C485.964905,375.047394 486.386963,381.548920 487.580444,387.906799 
	C492.971100,416.623871 501.102600,444.407990 515.141846,470.296173 
	C519.753418,478.799774 524.097473,487.371063 530.288879,494.865662 
	C531.364685,496.167938 532.288208,497.724762 531.344788,499.436859 
	C530.259949,501.405701 528.218567,501.179504 526.426941,500.940979 
	C514.204529,499.313812 502.023651,497.416138 490.162903,493.943359 
	C484.889709,492.399384 479.660248,490.678406 474.490875,488.815887 
	C470.043243,487.213440 470.185974,486.080139 472.316498,482.032806 
	C477.134888,472.879028 480.138336,463.200073 478.373718,451.260284 
	C475.970154,456.437714 473.979614,460.379944 472.279572,464.443726 
	C461.558044,490.073181 442.955963,506.782196 416.066925,513.981140 
	C412.019440,515.064758 409.260559,517.155640 407.334229,520.733582 
	C405.048584,524.979004 404.360901,528.654846 409.243225,531.853455 
	C414.396271,535.229431 415.629395,540.939575 416.842285,546.525391 
	C417.427673,549.221375 416.050629,550.182678 413.630920,550.311401 
	C395.817688,551.258728 378.004730,550.135315 360.191193,550.289490 
	C357.392853,550.313721 356.235779,548.482788 355.632477,545.892151 
	C354.480072,540.943542 355.322815,536.152344 357.130554,531.682922 
	C359.735931,525.241455 360.254028,518.382080 361.432953,511.728027 
	C363.170166,501.923309 365.793976,493.390991 374.416321,487.012024 
	C380.631622,482.413910 385.565460,476.074677 391.021484,470.463989 
	C392.962219,468.468292 394.028687,466.027374 393.685791,463.192139 
	C392.569489,453.962280 390.678558,444.794983 391.611115,435.406830 
	C391.665222,434.862427 391.199951,434.266418 390.625977,432.797943 
	C387.306641,437.093506 387.209381,441.609863 386.391632,445.811096 
	C385.917511,448.247101 385.760315,450.783936 385.792389,453.271118 
	C385.858765,458.412689 382.812531,458.960907 378.905548,458.054321 
	C370.316986,456.061493 361.608459,454.412811 353.219513,451.765869 
	C330.596039,444.627533 309.955109,433.986450 292.659454,417.237427 
	C278.670593,403.690704 268.534363,387.912750 264.511688,368.941193 
	C261.374664,354.146698 259.581360,338.850891 263.981934,323.961792 
	C266.967651,313.859894 268.783173,303.170959 274.873657,294.227264 
	C277.403595,290.512085 276.677673,287.307709 274.708496,284.020294 
	C272.299438,279.998474 270.710480,275.649567 268.860870,271.380951 
	C266.710724,266.418640 267.175262,262.402435 269.962311,257.852997 
	C274.217255,250.907318 277.853699,243.581192 281.705719,236.391418 
	C282.576630,234.765869 283.355255,233.110962 285.283752,231.829193 
M455.741119,376.371826 
	C451.974792,376.806091 448.753571,378.242523 446.275909,381.241180 
	C444.372986,383.544250 444.170685,385.514038 447.363464,386.535919 
	C450.352936,387.492798 453.429657,388.346436 456.531982,388.736298 
	C460.018707,389.174469 465.848267,384.267731 465.647858,381.103607 
	C465.366180,376.656921 461.455353,377.198181 458.531738,376.515839 
	C457.893219,376.366791 457.211426,376.403229 455.741119,376.371826 
M409.774628,397.249542 
	C412.237549,397.490540 414.739746,398.125732 417.154663,397.885071 
	C421.336365,397.468384 423.351562,393.859650 423.298920,390.559784 
	C423.243347,387.077515 419.367798,386.531189 416.365051,386.574097 
	C413.023926,386.621826 410.603455,388.894165 408.157959,390.888397 
	C405.056976,393.417206 405.273285,395.469360 409.774628,397.249542 
M380.699554,397.566071 
	C374.266022,396.599670 369.806702,398.711334 367.836456,403.800110 
	C370.726501,405.980164 374.287598,406.420258 377.640778,406.589569 
	C381.184723,406.768463 383.203369,403.740295 384.426331,400.887024 
	C385.308838,398.827972 383.006592,398.320892 380.699554,397.566071 
M461.167328,356.846954 
	C461.896210,356.446289 462.633453,356.060028 463.352356,355.642120 
	C465.207306,354.563690 467.822021,353.590118 467.235596,351.076660 
	C466.600159,348.353302 463.631012,348.667664 461.384796,348.321838 
	C460.895447,348.246521 460.386566,348.271332 459.887878,348.287201 
	C456.154388,348.405884 451.553223,352.191345 452.505371,354.848022 
	C453.895325,358.726135 457.309448,358.044281 461.167328,356.846954 
M341.669769,405.805908 
	C343.583618,406.000671 345.350464,405.788544 346.346832,403.851532 
	C346.784546,403.000671 346.330536,402.264038 345.799988,401.593506 
	C343.548126,398.747375 337.065765,398.512817 333.631836,401.345459 
	C335.017761,404.531433 338.345032,404.496429 341.669769,405.805908 
M420.815735,365.169830 
	C420.101196,366.247040 418.968903,367.301910 419.973846,368.696014 
	C420.881592,369.955322 422.314392,369.878082 423.591400,369.453674 
	C426.145844,368.604645 429.397003,368.860565 430.476440,365.479523 
	C430.821075,364.400055 430.377655,363.447815 429.405151,362.981232 
	C426.315491,361.498901 423.652954,362.405853 420.815735,365.169830 
z"/>
<path fill="#000000" opacity="1.000000" stroke="none" 
	d="
M620.869934,487.127136 
	C621.299683,484.315125 622.960938,482.160065 622.449402,479.337952 
	C620.248291,479.354645 619.886230,481.146210 619.086182,482.459747 
	C614.293396,490.329285 611.554077,498.737732 612.136902,508.081512 
	C612.237244,509.690552 612.334473,511.659943 610.464600,512.439758 
	C608.859009,513.109436 607.528320,511.981598 606.556152,510.842224 
	C600.391907,503.617584 592.696777,497.962372 586.526672,490.685089 
	C570.902710,472.257660 558.222229,452.173004 549.280029,429.655121 
	C540.808594,408.322937 535.517578,386.180359 532.367554,363.589539 
	C530.002014,346.624329 529.572449,329.424011 529.546265,312.267242 
	C529.540588,308.528992 531.554138,307.488800 534.731750,309.436646 
	C536.426453,310.475494 538.101807,311.652710 539.496277,313.055450 
	C544.529907,318.119110 550.957886,319.380188 557.652954,320.225311 
	C561.497437,320.710571 562.983154,319.134613 562.650391,315.501007 
	C562.346313,312.181610 562.009460,308.892639 562.668091,305.556610 
	C563.357727,302.063904 565.093018,301.119476 567.762390,303.553192 
	C573.762207,309.023254 580.437927,313.751709 585.383484,320.392242 
	C588.340759,324.363098 591.624451,328.112732 597.371826,328.475616 
	C600.573303,328.677734 602.116760,327.647644 602.643066,324.711090 
	C603.200745,321.599670 603.628479,318.464508 604.212952,315.358521 
	C604.483154,313.922668 604.550720,312.181580 606.221863,311.591827 
	C608.125427,310.920044 609.333618,312.314209 610.463013,313.535614 
	C615.946167,319.465820 619.473755,326.665558 623.476624,333.564911 
	C626.143311,338.161102 628.661743,342.815796 634.798096,343.930969 
	C637.958496,344.505371 639.489929,343.737793 640.397400,340.834137 
	C641.289734,337.979095 642.316772,335.163574 643.368835,332.362305 
	C643.838623,331.111511 644.453308,329.840576 646.121216,329.884033 
	C647.663513,329.924225 648.545105,330.966492 649.091614,332.217010 
	C652.489685,339.992523 656.173340,347.670044 658.114929,355.989990 
	C659.268127,360.931427 666.650513,365.265320 671.321716,363.527527 
	C674.221436,362.448792 673.631897,359.833801 673.644653,357.585175 
	C673.653198,356.074799 673.244873,354.339417 675.313965,354.018921 
	C676.999878,353.757782 677.451111,355.295380 677.929016,356.536133 
	C679.724121,361.195801 681.467529,365.861847 682.178711,370.856384 
	C682.695740,374.487030 681.958069,376.425018 677.687012,375.324493 
	C675.292236,374.707458 672.760742,374.424835 670.282410,374.369110 
	C665.111450,374.252899 663.644714,375.636780 664.702148,380.527618 
	C665.627441,384.807495 667.158142,389.028595 670.425171,392.650299 
	C670.085876,390.037048 669.737183,387.424957 669.409180,384.810272 
	C668.742737,379.497833 669.528809,378.518280 674.952881,378.792145 
	C680.976196,379.096222 686.792114,380.532928 692.404236,382.746216 
	C696.333374,384.295868 700.244324,385.145935 704.563049,384.202881 
	C708.480896,383.347382 712.533936,383.667664 716.481140,384.489471 
	C720.311401,385.286957 722.693665,384.099060 724.280884,380.281494 
	C726.622253,374.649811 729.481873,374.287567 734.045349,378.593872 
	C737.945251,382.273987 741.407288,386.299927 743.445251,391.355194 
	C744.419006,393.770660 746.252869,395.401459 748.200317,397.018311 
	C756.216858,403.673920 764.263977,409.769135 766.228088,421.562134 
	C767.279907,427.877838 772.410950,433.565033 774.778076,440.011047 
	C777.804565,448.252625 777.447998,456.376404 774.120667,464.346558 
	C772.613892,467.955841 770.155579,470.855621 765.852844,471.551300 
	C764.578674,471.757294 763.121948,472.226776 762.212280,473.073425 
	C755.134033,479.661102 746.923096,478.203186 738.619202,476.716400 
	C731.424561,475.428253 724.454285,473.029510 717.033325,472.768097 
	C714.514771,472.679413 712.072510,472.871185 709.598694,473.029297 
	C703.002197,473.450867 696.470276,472.831726 690.641357,469.673279 
	C682.568359,465.298828 675.160645,468.001404 668.625610,472.134521 
	C656.930969,479.530914 645.316772,486.893311 632.137207,491.404572 
	C630.562256,491.943665 629.023438,492.592285 627.438232,493.096985 
	C620.708069,495.239685 619.739502,494.415680 620.869934,487.127136 
z"/>
<path fill="#000000" opacity="1.000000" stroke="none" 
	d="
M587.230347,252.170578 
	C601.768005,247.399155 614.888000,240.494736 627.648315,232.948044 
	C633.677917,229.382004 638.977051,229.508820 644.901001,233.037415 
	C667.237610,246.342224 691.243530,255.751297 716.449951,261.808868 
	C734.238464,266.083801 752.294922,269.298340 770.739319,268.983246 
	C775.009705,268.910278 777.176208,270.745819 777.788513,274.957581 
	C781.058533,297.448730 781.993164,320.054443 780.685608,342.715149 
	C779.640320,360.831177 776.770935,378.737274 773.184143,396.521606 
	C772.953979,397.662750 772.703430,398.801300 772.414124,399.928711 
	C770.908020,405.798492 769.960693,406.097839 765.463379,402.329498 
	C759.064209,396.967621 752.954285,391.379486 748.864685,383.915955 
	C747.444519,381.324219 746.833252,378.825409 747.344238,375.817719 
	C750.330505,358.240509 752.365295,340.548889 752.550110,322.704102 
	C752.622437,315.719818 752.073486,308.728882 751.799133,301.741302 
	C751.660278,298.204681 750.095764,296.509521 746.278503,296.170349 
	C721.585022,293.976135 697.803345,287.930511 674.521118,279.446991 
	C662.731079,275.150940 651.618225,269.587219 640.536316,263.871643 
	C637.399597,262.253876 634.591553,262.292847 631.555908,263.969208 
	C599.484802,281.679504 564.905273,291.344208 528.763550,296.054382 
	C521.871399,296.952637 520.638367,298.423401 520.338379,305.408173 
	C519.543457,323.917389 520.976379,342.321075 522.557129,360.760284 
	C524.640320,385.060760 531.601196,408.113068 539.440674,430.930542 
	C543.877380,443.843903 550.572266,455.775940 558.118408,467.224945 
	C563.705017,475.701080 569.043640,484.278412 575.754883,491.991699 
	C592.050537,510.720367 610.361694,526.971375 631.960205,539.364685 
	C634.589539,540.873352 637.125671,541.161926 639.933655,539.430969 
	C658.292847,528.113708 675.315674,515.209351 689.786926,499.055481 
	C694.564941,493.721924 699.284973,488.354126 703.768433,482.780823 
	C705.498779,480.629913 707.577759,479.762177 710.264893,479.771484 
	C717.974854,479.798187 725.409241,481.890686 732.999573,482.820129 
	C736.838501,483.290192 736.935852,486.575256 735.178955,489.392914 
	C732.012573,494.471222 728.924072,499.666077 725.164429,504.293457 
	C714.883423,516.947266 704.108704,529.138611 691.673950,539.826233 
	C678.867126,550.833679 665.072510,560.306396 650.320801,568.449829 
	C650.175537,568.529968 649.992554,568.556274 649.868286,568.657959 
	C640.070862,576.673462 630.945801,573.719421 621.104919,567.977661 
	C592.883057,551.511353 567.819702,531.396973 548.010681,505.335327 
	C527.469421,478.310486 512.522888,448.352386 503.590179,415.495911 
	C495.958771,387.425995 492.038544,358.919403 491.329254,329.778961 
	C490.889557,311.715179 492.157715,293.878571 493.667633,275.968933 
	C494.066132,271.242432 496.163513,269.656403 500.638580,269.614166 
	C514.837585,269.480316 528.682312,266.475494 542.664062,264.419708 
	C557.961792,262.170471 572.469971,257.569794 587.230347,252.170578 
z"/>
<path fill="#000000" opacity="1.000000" stroke="none" 
	d="
M552.000000,633.154480 
	C519.527405,633.095703 487.554688,633.072693 455.582367,632.952393 
	C445.345306,632.913818 443.804871,631.086182 443.723724,621.013184 
	C443.585022,603.799072 445.115540,604.966187 459.712708,604.998230 
	C503.506683,605.094360 547.301392,604.859192 591.095764,604.750671 
	C597.909119,604.733765 599.414185,606.211670 599.186218,612.943787 
	C599.078979,616.112549 599.079590,619.236084 599.693665,622.384338 
	C601.175781,629.982300 598.597046,633.120239 590.967407,633.140076 
	C578.145020,633.173523 565.322449,633.151367 552.000000,633.154480 
z"/>
<path fill="#000000" opacity="1.000000" stroke="none" 
	d="
M757.999756,604.930542 
	C764.327942,604.924683 770.156311,604.938721 775.984314,604.899902 
	C780.520996,604.869690 782.718750,607.127441 782.813293,611.612183 
	C782.893860,615.432800 783.013000,619.253235 783.165283,623.071655 
	C783.460205,630.466553 781.126648,633.029724 773.569580,633.090088 
	C760.914978,633.191162 748.259155,633.158386 735.603882,633.157532 
	C704.798279,633.155334 673.992615,633.144043 643.187012,633.120789 
	C640.190735,633.118530 637.185547,633.132690 634.200439,632.917419 
	C629.594116,632.585266 627.314697,629.904785 627.349792,625.353271 
	C627.384399,620.863464 627.679626,616.374878 627.677063,611.885864 
	C627.674866,608.077637 629.408691,605.869812 633.155334,605.452759 
	C636.123291,605.122437 639.120178,604.892334 642.104309,604.891052 
	C680.569458,604.874695 719.034668,604.907410 757.999756,604.930542 
z"/>
<path fill="#000000" opacity="1.000000" stroke="none" 
	d="
M287.000061,633.075317 
	C280.005676,632.988831 273.500153,633.109863 267.019806,632.762207 
	C260.378815,632.406006 258.827362,630.071045 259.492798,623.392334 
	C259.803741,620.271973 259.432556,617.086121 259.413696,613.929810 
	C259.372131,606.983154 261.287384,604.756226 268.243652,605.066895 
	C284.886688,605.810120 301.533844,605.606262 318.176758,605.584290 
	C340.143951,605.555298 362.113556,605.317871 384.076050,604.871765 
	C392.068665,604.709473 399.994324,606.161011 408.012787,605.284180 
	C412.068329,604.840759 414.083069,607.670837 414.534760,611.376648 
	C415.017395,615.336609 415.201935,619.338074 415.390961,623.327393 
	C415.719818,630.269470 413.398224,632.815125 406.416412,632.870605 
	C389.096191,633.008423 371.775116,633.066895 354.454285,633.090088 
	C332.136230,633.120056 309.818115,633.084412 287.000061,633.075317 
z"/>
<path fill="#000000" opacity="1.000000" stroke="none" 
	d="
M516.019409,512.890503 
	C515.456055,516.108582 515.860229,518.928955 516.681213,521.633545 
	C517.687317,524.947937 519.433411,527.184998 523.407959,528.019958 
	C532.298645,529.887512 538.176147,537.954956 539.588623,549.047607 
	C538.789185,550.439575 537.368286,550.277222 536.072815,550.331421 
	C520.597290,550.979431 505.122925,550.840759 489.645752,550.327698 
	C486.323669,550.217529 484.109192,548.923035 482.421387,545.970825 
	C476.464844,535.552185 471.002258,524.896484 466.278351,513.864990 
	C464.763916,510.328461 466.648193,500.968018 469.258942,498.454376 
	C470.757996,497.011108 472.316223,497.571075 473.902527,498.130127 
	C485.678406,502.280121 497.543365,505.969238 510.082062,507.209381 
	C512.775024,507.475739 517.711243,506.736206 516.019409,512.890503 
z"/>
<path fill="#000000" opacity="1.000000" stroke="none" 
	d="
M646.643982,493.658203 
	C654.525452,488.976379 662.115723,484.522949 669.587585,479.878967 
	C672.871765,477.837769 674.551575,478.173615 675.486877,482.229584 
	C676.263733,485.598328 677.259399,489.136841 679.107605,491.983734 
	C681.547424,495.742004 680.669861,498.038177 677.827881,500.988556 
	C669.705627,509.420624 660.223694,516.088989 650.777039,522.846680 
	C647.889771,524.912109 646.068848,524.227844 644.333679,521.364502 
	C640.891968,515.684998 637.370850,510.047882 633.688721,504.522339 
	C631.778564,501.656067 632.491943,500.000732 635.418457,498.723846 
	C639.067383,497.131805 642.677673,495.451416 646.643982,493.658203 
z"/>
</svg>